_________________________  Visit us at _________________________
  
http://p2pdl.com  ____________________________  http://p2pdl.com


Mere Dad Ki Maruti 2013 WEBRip 480p x264 Hindi - ViZNU


Genre: Comedy | Crime
Plot: Everyone's dancing and making merry in the Khullar household, especially Tej who is all set to
gift would-be son-in-law Raj and daughter Tanvi a brand new Maruti Ertiga car on their wedding day...
Director: Ashima Chibber
Stars: Ram Kapoor, Ravi Kishan, Saqib Saleem.
Rated: N/a.

Info: 
http://www.imdb.com/title/tt2323964/

Trailer:


Format                         : MPEG-4
File size                      : 351 MiB
Duration                       : 1h 41mn
Overall bit rate               : 485 Kbps
Video Format                   : AVC
Video Bit rate                 : 442 Kbps
Width                          : 720 pixels
Height                         : 304 pixels
Display aspect ratio           : 2.35:1
Frame rate mode                : Constant
Frame rate                     : 24.000 fps
Stream size                    : 320 MiB (91%)
Writing library                : x264 core 130 r2273
Audio Format                   : AAC
Bit rate mode                  : Variable
Audio Bit rate                 : 39.9 Kbps
Channel(s)                     : 2 channels
Channel positions              : Front: L R
Sampling rate                  : 44.1 KHz
Stream size                    : 28.9 MiB (8%)
Subtitle                       : N/a
Source                         : Team ICTV(Thanks)

Screens:
 
http://ultraimg.com/images/Vt3xU.jpg

----------------------------------------------------------------------------------------------------


Encoded using revolutionary 10bit encoding, which enables us to provide you more crispier 
and sharper images at small sizes, just make sure you follow our instructions without a fault.
Recommend to you to use latest version of VLC player. Install K-Lite Codec Pack or shark007 codecs
in case of any kind of problem in playback (For non-VLC Media Player users). Alternatively, install
Core AVC codecs, the fastest decoder that there is coupled with Community Center Codec Pack and play
on Windows Media Player Classic. Check sample to be sure.
Enjoy!

Encoder Notes:Looking For Early Access To Anything You Can Provide DVDScr, R5, DVDR, BluRay, Direct
Audio, Music Releases and Seedboxes. We require dedicated servers, so as to do more 
and fast releases of movies.
If You Got anything to offer please contact us at "prg@hush.com".

Face book Fan Page:   
http://www.fb.me/p2pdl